<mxfile host="app.diagrams.net" agent="Mozilla/5.0 (Windows NT 10.0; Win64; x64) AppleWebKit/537.36 (KHTML, like Gecko) Chrome/134.0.0.0 Safari/537.36" version="26.1.3">
  <diagram id="C5RBs43oDa-KdzZeNtuy" name="Page-1">
    <mxGraphModel dx="2390" dy="1287" grid="1" gridSize="10" guides="1" tooltips="1" connect="1" arrows="1" fold="1" page="1" pageScale="1" pageWidth="827" pageHeight="1169" math="0" shadow="0">
      <root>
        <mxCell id="WIyWlLk6GJQsqaUBKTNV-0" />
        <mxCell id="WIyWlLk6GJQsqaUBKTNV-1" parent="WIyWlLk6GJQsqaUBKTNV-0" />
        <mxCell id="fssm9FHdCnBebedJ0w3f-11" style="edgeStyle=orthogonalEdgeStyle;rounded=0;orthogonalLoop=1;jettySize=auto;html=1;exitX=0.5;exitY=1;exitDx=0;exitDy=0;exitPerimeter=0;entryX=0.5;entryY=0;entryDx=0;entryDy=0;" edge="1" parent="WIyWlLk6GJQsqaUBKTNV-1" source="fssm9FHdCnBebedJ0w3f-0" target="fssm9FHdCnBebedJ0w3f-2">
          <mxGeometry relative="1" as="geometry" />
        </mxCell>
        <mxCell id="fssm9FHdCnBebedJ0w3f-0" value="INICIO" style="strokeWidth=2;html=1;shape=mxgraph.flowchart.start_1;whiteSpace=wrap;fillColor=#d5e8d4;strokeColor=#82b366;" vertex="1" parent="WIyWlLk6GJQsqaUBKTNV-1">
          <mxGeometry x="350" y="60" width="100" height="60" as="geometry" />
        </mxCell>
        <mxCell id="fssm9FHdCnBebedJ0w3f-1" value="FIM" style="strokeWidth=2;html=1;shape=mxgraph.flowchart.start_1;whiteSpace=wrap;fillColor=#d5e8d4;strokeColor=#82b366;" vertex="1" parent="WIyWlLk6GJQsqaUBKTNV-1">
          <mxGeometry x="349.5" y="1180" width="100" height="60" as="geometry" />
        </mxCell>
        <mxCell id="fssm9FHdCnBebedJ0w3f-9" style="edgeStyle=orthogonalEdgeStyle;rounded=0;orthogonalLoop=1;jettySize=auto;html=1;exitX=0.5;exitY=1;exitDx=0;exitDy=0;entryX=0.5;entryY=0;entryDx=0;entryDy=0;" edge="1" parent="WIyWlLk6GJQsqaUBKTNV-1" source="fssm9FHdCnBebedJ0w3f-2" target="fssm9FHdCnBebedJ0w3f-4">
          <mxGeometry relative="1" as="geometry" />
        </mxCell>
        <mxCell id="fssm9FHdCnBebedJ0w3f-2" value="VETOR[4]&lt;div&gt;TEMP = 0&lt;/div&gt;" style="rounded=1;whiteSpace=wrap;html=1;absoluteArcSize=1;arcSize=14;strokeWidth=2;fillColor=#f5f5f5;fontColor=#333333;strokeColor=#666666;" vertex="1" parent="WIyWlLk6GJQsqaUBKTNV-1">
          <mxGeometry x="330" y="160" width="140" height="40" as="geometry" />
        </mxCell>
        <mxCell id="fssm9FHdCnBebedJ0w3f-3" value="TEMP = VETOR[J + 1]&lt;div&gt;VETOR[J + 1] = VETOR[J]&lt;/div&gt;&lt;div&gt;VETOR[J] = TEMP&lt;/div&gt;" style="rounded=1;whiteSpace=wrap;html=1;absoluteArcSize=1;arcSize=14;strokeWidth=2;fillColor=#f5f5f5;fontColor=#333333;strokeColor=#666666;" vertex="1" parent="WIyWlLk6GJQsqaUBKTNV-1">
          <mxGeometry x="318" y="730" width="163" height="60" as="geometry" />
        </mxCell>
        <mxCell id="fssm9FHdCnBebedJ0w3f-7" value="" style="edgeStyle=orthogonalEdgeStyle;rounded=0;orthogonalLoop=1;jettySize=auto;html=1;" edge="1" parent="WIyWlLk6GJQsqaUBKTNV-1" source="fssm9FHdCnBebedJ0w3f-4" target="fssm9FHdCnBebedJ0w3f-5">
          <mxGeometry relative="1" as="geometry" />
        </mxCell>
        <mxCell id="fssm9FHdCnBebedJ0w3f-4" value="I = 0, I &amp;lt; 4, I++" style="shape=hexagon;perimeter=hexagonPerimeter2;whiteSpace=wrap;html=1;fixedSize=1;fillColor=#fff2cc;strokeColor=#d6b656;size=25;" vertex="1" parent="WIyWlLk6GJQsqaUBKTNV-1">
          <mxGeometry x="325" y="230" width="150" height="40" as="geometry" />
        </mxCell>
        <mxCell id="fssm9FHdCnBebedJ0w3f-12" style="edgeStyle=orthogonalEdgeStyle;rounded=0;orthogonalLoop=1;jettySize=auto;html=1;exitX=0;exitY=0.75;exitDx=0;exitDy=0;entryX=0;entryY=0.5;entryDx=0;entryDy=0;" edge="1" parent="WIyWlLk6GJQsqaUBKTNV-1" source="fssm9FHdCnBebedJ0w3f-5" target="fssm9FHdCnBebedJ0w3f-4">
          <mxGeometry relative="1" as="geometry" />
        </mxCell>
        <mxCell id="fssm9FHdCnBebedJ0w3f-5" value="&lt;div&gt;&lt;br&gt;&lt;/div&gt;VETOR[I]" style="html=1;strokeWidth=2;shape=manualInput;whiteSpace=wrap;rounded=1;size=26;arcSize=11;fillColor=#dae8fc;strokeColor=#6c8ebf;" vertex="1" parent="WIyWlLk6GJQsqaUBKTNV-1">
          <mxGeometry x="340" y="300" width="120" height="50" as="geometry" />
        </mxCell>
        <mxCell id="fssm9FHdCnBebedJ0w3f-35" value="" style="edgeStyle=orthogonalEdgeStyle;rounded=0;orthogonalLoop=1;jettySize=auto;html=1;" edge="1" parent="WIyWlLk6GJQsqaUBKTNV-1" source="fssm9FHdCnBebedJ0w3f-13" target="fssm9FHdCnBebedJ0w3f-34">
          <mxGeometry relative="1" as="geometry" />
        </mxCell>
        <mxCell id="fssm9FHdCnBebedJ0w3f-13" value="" style="verticalLabelPosition=bottom;verticalAlign=top;html=1;shape=mxgraph.flowchart.on-page_reference;fillColor=#f5f5f5;gradientColor=#b3b3b3;strokeColor=#666666;" vertex="1" parent="WIyWlLk6GJQsqaUBKTNV-1">
          <mxGeometry x="380" y="390" width="40" height="40" as="geometry" />
        </mxCell>
        <mxCell id="fssm9FHdCnBebedJ0w3f-14" style="edgeStyle=orthogonalEdgeStyle;rounded=0;orthogonalLoop=1;jettySize=auto;html=1;exitX=1;exitY=0.5;exitDx=0;exitDy=0;entryX=1;entryY=0.5;entryDx=0;entryDy=0;entryPerimeter=0;" edge="1" parent="WIyWlLk6GJQsqaUBKTNV-1" source="fssm9FHdCnBebedJ0w3f-4" target="fssm9FHdCnBebedJ0w3f-13">
          <mxGeometry relative="1" as="geometry" />
        </mxCell>
        <mxCell id="fssm9FHdCnBebedJ0w3f-22" style="edgeStyle=orthogonalEdgeStyle;rounded=0;orthogonalLoop=1;jettySize=auto;html=1;exitX=0.5;exitY=1;exitDx=0;exitDy=0;exitPerimeter=0;entryX=0.5;entryY=0;entryDx=0;entryDy=0;" edge="1" parent="WIyWlLk6GJQsqaUBKTNV-1" source="fssm9FHdCnBebedJ0w3f-20" target="fssm9FHdCnBebedJ0w3f-3">
          <mxGeometry relative="1" as="geometry" />
        </mxCell>
        <mxCell id="fssm9FHdCnBebedJ0w3f-20" value="VETOR[J] &amp;gt; VETOR[J + 1]" style="strokeWidth=2;html=1;shape=mxgraph.flowchart.decision;whiteSpace=wrap;fillColor=#ffe6cc;strokeColor=#d79b00;" vertex="1" parent="WIyWlLk6GJQsqaUBKTNV-1">
          <mxGeometry x="349.5" y="600" width="100" height="100" as="geometry" />
        </mxCell>
        <mxCell id="fssm9FHdCnBebedJ0w3f-23" value="SIM" style="text;html=1;align=center;verticalAlign=middle;resizable=0;points=[];autosize=1;strokeColor=none;fillColor=none;" vertex="1" parent="WIyWlLk6GJQsqaUBKTNV-1">
          <mxGeometry x="394.5" y="690" width="40" height="30" as="geometry" />
        </mxCell>
        <mxCell id="fssm9FHdCnBebedJ0w3f-27" value="" style="verticalLabelPosition=bottom;verticalAlign=top;html=1;shape=mxgraph.flowchart.on-page_reference;fillColor=#f5f5f5;gradientColor=#b3b3b3;strokeColor=#666666;" vertex="1" parent="WIyWlLk6GJQsqaUBKTNV-1">
          <mxGeometry x="380" y="1100" width="40" height="40" as="geometry" />
        </mxCell>
        <mxCell id="fssm9FHdCnBebedJ0w3f-37" style="edgeStyle=orthogonalEdgeStyle;rounded=0;orthogonalLoop=1;jettySize=auto;html=1;exitX=0.5;exitY=1;exitDx=0;exitDy=0;entryX=0.5;entryY=0;entryDx=0;entryDy=0;" edge="1" parent="WIyWlLk6GJQsqaUBKTNV-1" source="fssm9FHdCnBebedJ0w3f-34" target="fssm9FHdCnBebedJ0w3f-36">
          <mxGeometry relative="1" as="geometry" />
        </mxCell>
        <mxCell id="fssm9FHdCnBebedJ0w3f-34" value="I= 0, I &amp;lt; 4, I++" style="shape=hexagon;perimeter=hexagonPerimeter2;whiteSpace=wrap;html=1;fixedSize=1;fillColor=#fff2cc;strokeColor=#d6b656;size=25;" vertex="1" parent="WIyWlLk6GJQsqaUBKTNV-1">
          <mxGeometry x="325" y="470" width="150" height="40" as="geometry" />
        </mxCell>
        <mxCell id="fssm9FHdCnBebedJ0w3f-41" style="edgeStyle=orthogonalEdgeStyle;rounded=0;orthogonalLoop=1;jettySize=auto;html=1;exitX=1;exitY=0.5;exitDx=0;exitDy=0;entryX=1;entryY=0.5;entryDx=0;entryDy=0;" edge="1" parent="WIyWlLk6GJQsqaUBKTNV-1" source="fssm9FHdCnBebedJ0w3f-36" target="fssm9FHdCnBebedJ0w3f-34">
          <mxGeometry relative="1" as="geometry" />
        </mxCell>
        <mxCell id="fssm9FHdCnBebedJ0w3f-44" value="FIM LOOP J" style="edgeLabel;html=1;align=center;verticalAlign=middle;resizable=0;points=[];" vertex="1" connectable="0" parent="fssm9FHdCnBebedJ0w3f-41">
          <mxGeometry x="0.06" y="-2" relative="1" as="geometry">
            <mxPoint as="offset" />
          </mxGeometry>
        </mxCell>
        <mxCell id="fssm9FHdCnBebedJ0w3f-36" value="J=0, J &amp;lt; 4 - I - 1, J++" style="shape=hexagon;perimeter=hexagonPerimeter2;whiteSpace=wrap;html=1;fixedSize=1;fillColor=#fff2cc;strokeColor=#d6b656;size=25;" vertex="1" parent="WIyWlLk6GJQsqaUBKTNV-1">
          <mxGeometry x="325" y="530" width="150" height="40" as="geometry" />
        </mxCell>
        <mxCell id="fssm9FHdCnBebedJ0w3f-38" style="edgeStyle=orthogonalEdgeStyle;rounded=0;orthogonalLoop=1;jettySize=auto;html=1;exitX=0.5;exitY=1;exitDx=0;exitDy=0;entryX=0.5;entryY=0;entryDx=0;entryDy=0;entryPerimeter=0;" edge="1" parent="WIyWlLk6GJQsqaUBKTNV-1" source="fssm9FHdCnBebedJ0w3f-36" target="fssm9FHdCnBebedJ0w3f-20">
          <mxGeometry relative="1" as="geometry" />
        </mxCell>
        <mxCell id="fssm9FHdCnBebedJ0w3f-66" style="edgeStyle=orthogonalEdgeStyle;rounded=0;orthogonalLoop=1;jettySize=auto;html=1;exitX=0.5;exitY=1;exitDx=0;exitDy=0;exitPerimeter=0;entryX=0.5;entryY=0;entryDx=0;entryDy=0;" edge="1" parent="WIyWlLk6GJQsqaUBKTNV-1" source="fssm9FHdCnBebedJ0w3f-42" target="fssm9FHdCnBebedJ0w3f-64">
          <mxGeometry relative="1" as="geometry" />
        </mxCell>
        <mxCell id="fssm9FHdCnBebedJ0w3f-42" value="" style="verticalLabelPosition=bottom;verticalAlign=top;html=1;shape=mxgraph.flowchart.on-page_reference;fillColor=#f5f5f5;gradientColor=#b3b3b3;strokeColor=#666666;" vertex="1" parent="WIyWlLk6GJQsqaUBKTNV-1">
          <mxGeometry x="379.25" y="870" width="40.5" height="40" as="geometry" />
        </mxCell>
        <mxCell id="fssm9FHdCnBebedJ0w3f-43" style="edgeStyle=orthogonalEdgeStyle;rounded=0;orthogonalLoop=1;jettySize=auto;html=1;exitX=0;exitY=0.5;exitDx=0;exitDy=0;entryX=0;entryY=0.5;entryDx=0;entryDy=0;entryPerimeter=0;" edge="1" parent="WIyWlLk6GJQsqaUBKTNV-1" source="fssm9FHdCnBebedJ0w3f-34" target="fssm9FHdCnBebedJ0w3f-42">
          <mxGeometry relative="1" as="geometry">
            <Array as="points">
              <mxPoint x="270" y="490" />
              <mxPoint x="270" y="890" />
            </Array>
          </mxGeometry>
        </mxCell>
        <mxCell id="fssm9FHdCnBebedJ0w3f-45" value="FIM LOOP I" style="edgeLabel;html=1;align=center;verticalAlign=middle;resizable=0;points=[];" vertex="1" connectable="0" parent="fssm9FHdCnBebedJ0w3f-43">
          <mxGeometry x="-0.6463" relative="1" as="geometry">
            <mxPoint x="-10" y="-6" as="offset" />
          </mxGeometry>
        </mxCell>
        <mxCell id="fssm9FHdCnBebedJ0w3f-50" style="edgeStyle=orthogonalEdgeStyle;rounded=0;orthogonalLoop=1;jettySize=auto;html=1;exitX=0;exitY=0.5;exitDx=0;exitDy=0;exitPerimeter=0;entryX=0;entryY=0.5;entryDx=0;entryDy=0;" edge="1" parent="WIyWlLk6GJQsqaUBKTNV-1" source="fssm9FHdCnBebedJ0w3f-46" target="fssm9FHdCnBebedJ0w3f-36">
          <mxGeometry relative="1" as="geometry">
            <Array as="points">
              <mxPoint x="300" y="830" />
              <mxPoint x="300" y="550" />
            </Array>
          </mxGeometry>
        </mxCell>
        <mxCell id="fssm9FHdCnBebedJ0w3f-46" value="" style="verticalLabelPosition=bottom;verticalAlign=top;html=1;shape=mxgraph.flowchart.on-page_reference;fillColor=#f5f5f5;gradientColor=#b3b3b3;strokeColor=#666666;" vertex="1" parent="WIyWlLk6GJQsqaUBKTNV-1">
          <mxGeometry x="379.25" y="810" width="40.5" height="40" as="geometry" />
        </mxCell>
        <mxCell id="fssm9FHdCnBebedJ0w3f-47" style="edgeStyle=orthogonalEdgeStyle;rounded=0;orthogonalLoop=1;jettySize=auto;html=1;exitX=0.5;exitY=1;exitDx=0;exitDy=0;entryX=0.5;entryY=0;entryDx=0;entryDy=0;entryPerimeter=0;" edge="1" parent="WIyWlLk6GJQsqaUBKTNV-1" source="fssm9FHdCnBebedJ0w3f-3" target="fssm9FHdCnBebedJ0w3f-46">
          <mxGeometry relative="1" as="geometry" />
        </mxCell>
        <mxCell id="fssm9FHdCnBebedJ0w3f-48" style="edgeStyle=orthogonalEdgeStyle;rounded=0;orthogonalLoop=1;jettySize=auto;html=1;exitX=1;exitY=0.5;exitDx=0;exitDy=0;exitPerimeter=0;entryX=1;entryY=0.5;entryDx=0;entryDy=0;entryPerimeter=0;" edge="1" parent="WIyWlLk6GJQsqaUBKTNV-1" source="fssm9FHdCnBebedJ0w3f-20" target="fssm9FHdCnBebedJ0w3f-46">
          <mxGeometry relative="1" as="geometry">
            <Array as="points">
              <mxPoint x="500" y="650" />
              <mxPoint x="500" y="830" />
            </Array>
          </mxGeometry>
        </mxCell>
        <mxCell id="fssm9FHdCnBebedJ0w3f-49" value="NÃO" style="edgeLabel;html=1;align=center;verticalAlign=middle;resizable=0;points=[];" vertex="1" connectable="0" parent="fssm9FHdCnBebedJ0w3f-48">
          <mxGeometry x="-0.0636" y="2" relative="1" as="geometry">
            <mxPoint y="1" as="offset" />
          </mxGeometry>
        </mxCell>
        <mxCell id="fssm9FHdCnBebedJ0w3f-51" value="I = 0&lt;div&gt;J = 0&lt;/div&gt;&lt;div&gt;&lt;br&gt;&lt;/div&gt;&lt;div&gt;J = 1&lt;/div&gt;&lt;div&gt;&lt;br&gt;&lt;/div&gt;&lt;div&gt;J = 2&lt;/div&gt;" style="text;html=1;align=center;verticalAlign=middle;whiteSpace=wrap;rounded=0;" vertex="1" parent="WIyWlLk6GJQsqaUBKTNV-1">
          <mxGeometry x="630" y="460" width="60" height="30" as="geometry" />
        </mxCell>
        <mxCell id="fssm9FHdCnBebedJ0w3f-52" value="VETOR [ 4,5,7,1 ]&lt;div&gt;&lt;span style=&quot;color: rgba(0, 0, 0, 0); font-family: monospace; font-size: 0px; text-align: start; text-wrap-mode: nowrap;&quot;&gt;%3CmxGraphModel%3E%3Croot%3E%3CmxCell%20id%3D%220%22%2F%3E%3CmxCell%20id%3D%221%22%20parent%3D%220%22%2F%3E%3CmxCell%20id%3D%222%22%20value%3D%22%22%20style%3D%22verticalLabelPosition%3Dbottom%3BverticalAlign%3Dtop%3Bhtml%3D1%3Bshape%3Dmxgraph.flowchart.on-page_reference%3BfillColor%3D%23f5f5f5%3BgradientColor%3D%23b3b3b3%3BstrokeColor%3D%23666666%3B%22%20vertex%3D%221%22%20parent%3D%221%22%3E%3CmxGeometry%20x%3D%22379.25%22%20y%3D%22870%22%20width%3D%2240.5%22%20height%3D%2240%22%20as%3D%22geometry%22%2F%3E%3C%2FmxCell%3E%3C%2Froot%3E%3C%2FmxGraphModel%3E&lt;/span&gt;&lt;span style=&quot;background-color: transparent; color: light-dark(rgb(0, 0, 0), rgb(255, 255, 255));&quot;&gt;VETOR [ 4,5,7,1 ]&lt;/span&gt;&lt;/div&gt;&lt;div&gt;VETOR [ 4,5,7,1 ]&lt;span style=&quot;background-color: transparent; color: light-dark(rgb(0, 0, 0), rgb(255, 255, 255));&quot;&gt;&lt;/span&gt;&lt;/div&gt;&lt;div&gt;VETOR [ 4,5,1,7 ]&lt;/div&gt;" style="text;html=1;align=center;verticalAlign=middle;whiteSpace=wrap;rounded=0;" vertex="1" parent="WIyWlLk6GJQsqaUBKTNV-1">
          <mxGeometry x="710" y="460" width="120" height="30" as="geometry" />
        </mxCell>
        <mxCell id="fssm9FHdCnBebedJ0w3f-53" value="1 ITEIRAÇÃO" style="text;html=1;align=center;verticalAlign=middle;whiteSpace=wrap;rounded=0;" vertex="1" parent="WIyWlLk6GJQsqaUBKTNV-1">
          <mxGeometry x="710" y="410" width="140" height="30" as="geometry" />
        </mxCell>
        <mxCell id="fssm9FHdCnBebedJ0w3f-54" value="2 ITEIRAÇÃO" style="text;html=1;align=center;verticalAlign=middle;whiteSpace=wrap;rounded=0;" vertex="1" parent="WIyWlLk6GJQsqaUBKTNV-1">
          <mxGeometry x="930" y="410" width="140" height="30" as="geometry" />
        </mxCell>
        <mxCell id="fssm9FHdCnBebedJ0w3f-55" value="&lt;div&gt;VETOR [ 4,5,1,7 ]&lt;/div&gt;&lt;div&gt;VETOR [ 4,5,1,7 ]&lt;/div&gt;&lt;div&gt;VETOR [ 4,1,5,7 ]&lt;/div&gt;" style="text;html=1;align=center;verticalAlign=middle;whiteSpace=wrap;rounded=0;" vertex="1" parent="WIyWlLk6GJQsqaUBKTNV-1">
          <mxGeometry x="950" y="460" width="120" height="30" as="geometry" />
        </mxCell>
        <mxCell id="fssm9FHdCnBebedJ0w3f-57" value="I = 1&lt;div&gt;J = 0&lt;/div&gt;&lt;div&gt;J = 1&amp;nbsp;&lt;/div&gt;" style="text;html=1;align=center;verticalAlign=middle;whiteSpace=wrap;rounded=0;" vertex="1" parent="WIyWlLk6GJQsqaUBKTNV-1">
          <mxGeometry x="880" y="460" width="60" height="30" as="geometry" />
        </mxCell>
        <mxCell id="fssm9FHdCnBebedJ0w3f-59" value="3 ITEIRAÇÃO" style="text;html=1;align=center;verticalAlign=middle;whiteSpace=wrap;rounded=0;" vertex="1" parent="WIyWlLk6GJQsqaUBKTNV-1">
          <mxGeometry x="1130" y="410" width="140" height="30" as="geometry" />
        </mxCell>
        <mxCell id="fssm9FHdCnBebedJ0w3f-61" value="&lt;div&gt;&lt;span style=&quot;background-color: transparent; color: light-dark(rgb(0, 0, 0), rgb(255, 255, 255));&quot;&gt;VETOR [ 4,1,5,7 ]&lt;/span&gt;&lt;/div&gt;&lt;div&gt;&lt;div&gt;&lt;span style=&quot;background-color: transparent; color: light-dark(rgb(0, 0, 0), rgb(255, 255, 255));&quot;&gt;VETOR [ 1,4,5,7 ]&lt;/span&gt;&lt;/div&gt;&lt;/div&gt;&lt;div&gt;&lt;span style=&quot;background-color: transparent; color: light-dark(rgb(0, 0, 0), rgb(255, 255, 255));&quot;&gt;&lt;br&gt;&lt;/span&gt;&lt;/div&gt;" style="text;html=1;align=center;verticalAlign=middle;whiteSpace=wrap;rounded=0;" vertex="1" parent="WIyWlLk6GJQsqaUBKTNV-1">
          <mxGeometry x="1210" y="460" width="120" height="30" as="geometry" />
        </mxCell>
        <mxCell id="fssm9FHdCnBebedJ0w3f-62" value="I = 2&lt;div&gt;J = 0&lt;span style=&quot;background-color: transparent; color: light-dark(rgb(0, 0, 0), rgb(255, 255, 255));&quot;&gt;&amp;nbsp;&lt;/span&gt;&lt;/div&gt;" style="text;html=1;align=center;verticalAlign=middle;whiteSpace=wrap;rounded=0;" vertex="1" parent="WIyWlLk6GJQsqaUBKTNV-1">
          <mxGeometry x="1130" y="460" width="60" height="30" as="geometry" />
        </mxCell>
        <mxCell id="fssm9FHdCnBebedJ0w3f-67" style="edgeStyle=orthogonalEdgeStyle;rounded=0;orthogonalLoop=1;jettySize=auto;html=1;exitX=0;exitY=0.5;exitDx=0;exitDy=0;exitPerimeter=0;entryX=0;entryY=0.5;entryDx=0;entryDy=0;" edge="1" parent="WIyWlLk6GJQsqaUBKTNV-1" source="fssm9FHdCnBebedJ0w3f-63" target="fssm9FHdCnBebedJ0w3f-64">
          <mxGeometry relative="1" as="geometry" />
        </mxCell>
        <mxCell id="fssm9FHdCnBebedJ0w3f-63" value="VETOR[I]" style="strokeWidth=2;html=1;shape=mxgraph.flowchart.display;whiteSpace=wrap;fillColor=#e1d5e7;strokeColor=#9673a6;" vertex="1" parent="WIyWlLk6GJQsqaUBKTNV-1">
          <mxGeometry x="349.5" y="1010" width="100" height="60" as="geometry" />
        </mxCell>
        <mxCell id="fssm9FHdCnBebedJ0w3f-64" value="I = 0, I &amp;lt; 4, I++" style="shape=hexagon;perimeter=hexagonPerimeter2;whiteSpace=wrap;html=1;fixedSize=1;fillColor=#fff2cc;strokeColor=#d6b656;size=25;" vertex="1" parent="WIyWlLk6GJQsqaUBKTNV-1">
          <mxGeometry x="324.5" y="940" width="150" height="40" as="geometry" />
        </mxCell>
        <mxCell id="fssm9FHdCnBebedJ0w3f-65" style="edgeStyle=orthogonalEdgeStyle;rounded=0;orthogonalLoop=1;jettySize=auto;html=1;exitX=0.5;exitY=1;exitDx=0;exitDy=0;entryX=0.5;entryY=0;entryDx=0;entryDy=0;entryPerimeter=0;" edge="1" parent="WIyWlLk6GJQsqaUBKTNV-1" source="fssm9FHdCnBebedJ0w3f-64" target="fssm9FHdCnBebedJ0w3f-63">
          <mxGeometry relative="1" as="geometry" />
        </mxCell>
        <mxCell id="fssm9FHdCnBebedJ0w3f-68" style="edgeStyle=orthogonalEdgeStyle;rounded=0;orthogonalLoop=1;jettySize=auto;html=1;exitX=1;exitY=0.5;exitDx=0;exitDy=0;entryX=1;entryY=0.5;entryDx=0;entryDy=0;entryPerimeter=0;" edge="1" parent="WIyWlLk6GJQsqaUBKTNV-1" source="fssm9FHdCnBebedJ0w3f-64" target="fssm9FHdCnBebedJ0w3f-27">
          <mxGeometry relative="1" as="geometry" />
        </mxCell>
        <mxCell id="fssm9FHdCnBebedJ0w3f-69" style="edgeStyle=orthogonalEdgeStyle;rounded=0;orthogonalLoop=1;jettySize=auto;html=1;exitX=0.5;exitY=1;exitDx=0;exitDy=0;exitPerimeter=0;entryX=0.5;entryY=0;entryDx=0;entryDy=0;entryPerimeter=0;" edge="1" parent="WIyWlLk6GJQsqaUBKTNV-1" source="fssm9FHdCnBebedJ0w3f-27" target="fssm9FHdCnBebedJ0w3f-1">
          <mxGeometry relative="1" as="geometry" />
        </mxCell>
      </root>
    </mxGraphModel>
  </diagram>
</mxfile>
